<mxfile host="app.diagrams.net" modified="2023-03-22T18:32:43.714Z" agent="5.0 (Windows)" etag="hsXzk8RNqORYeFS83t51" version="21.0.8" type="github" pages="2">
  <diagram name="Exe1" id="gJc1Qm3GXgY52kXY2GF_">
    <mxGraphModel dx="2074" dy="1142" grid="1" gridSize="10" guides="1" tooltips="1" connect="1" arrows="1" fold="1" page="1" pageScale="1" pageWidth="827" pageHeight="1169" math="0" shadow="0">
      <root>
        <mxCell id="0" />
        <mxCell id="1" parent="0" />
        <mxCell id="zwBekvU711sfdlBTy3ud-1" value="Text" style="text;html=1;strokeColor=none;fillColor=none;align=center;verticalAlign=middle;whiteSpace=wrap;rounded=0;" vertex="1" parent="1">
          <mxGeometry x="110" y="120" width="600" height="470" as="geometry" />
        </mxCell>
        <mxCell id="zwBekvU711sfdlBTy3ud-2" value="" style="shape=image;verticalLabelPosition=bottom;labelBackgroundColor=default;verticalAlign=top;aspect=fixed;imageAspect=0;image=data:image/png,iVBORw0KGgoAAAANSUhEUgAAAUoAAAFaCAYAAAB4/xSeAAAAAXNSR0IArs4c6QAAAARnQU1BAACxjwv8YQUAAAAJcEhZcwAADsMAAA7DAcdvqGQAADvDSURBVHhe7d35V1PXwj7w759xf7p7SVhML+NSBl0gIPAqYZZRZaGCIlaUqrWoKIoiGqljq2Ktdei1g6JvB+y1FKu0aL0OKE5AtYiIYlQcKkW5xT7fnCQkAQMnMhjQ54fPCufsc/YZkjzsfc6B/f+GDRuGgTBmzBiz84mIhhoGJRGRDAYlEZEMBiURkQwGJRGRDAYlEZEMBiURkQwGJRGRDAYlEZEMBiURkQwGJRGRDAYlEZEMBiURkQwGJRGRDAYlEZEMBiURkQwGJRGRDAblECc8HVH+b080ao3A3hhhdjmiroSwRdGBjs+OJ84ssDW7HDEohzzh5YiKHzzwYYQCIb4KeDswKMkyQgh4jpQ+N7Yo/NgT57MZlN15Y4NSCBcs+hWo2ZtktvxNoQtKd6zwejkgha0LFkxNQs2KGXhUkIYrWWGY7WHz0nK9FZ+SimcfZHbSuiQUYZovoLnle8PNJxA/Lp+J1sJ3cCioc71T09Jf3v6isQjuh+0L4Y5Pl896qX7Jwxk+ZtfpLeHij4qCqdjlpzBb3ldCKDBtehqevB9k9twIMQyLtjAoe8KgHOK6C0ohbDA5NQ1/LI3BMn83RIwcic3vTsfTnHGI7KcgS5ycitZ3gxDi4YzgDm52sO+XoBqGEGUMflOl41RKJE6oXg5KR0cnw3ZDfIPwS34Gzk/wgGM/BuWJOFfjsXl44/Nls3Ap0cXsOr0hhB2yZqahKsm9X86bOQ6jwnBdNRkfeZkvZ1DKs1pQGoLsQAHyf76Bm89acK22DCsS3fXlHsg5A1R9EmNcJ3A9TuE3qEIEhHIrzrcewYe7rqPh8UWsSkzFtro/cPPGYWT6acr19V/5YjmWll1Hfaum/t/KkK+vX1ufYjTSPylH5YNWqJ8/RtWZLzFX6WAoH7O5Gs2Xd2HRnkrUtDzDzaaL+NfScMMHWthHYnFJFaoft+H+izbcaKzCZ7kRsBugD7w53QelB7bnTMf/hRhbkMIjGJcKU1Do3j/7N3FKGv6cNcpsWV9JAbJkRhI+9HeAQvjgGzNBaVjWwRN7c9JxabInPPrp3Eufn7x3JuDjQOP5U/iG46ZqAla49N/76zg6AtXzgzB2WP/VaUrYuGHb4pm4NmU4HLo5NwxKeVYPyvo7J1C0YALCY2dgdcV9NN/ZixjNG2pRULbXYcfsOMwsbsDtugOYE5eBnXXAmS2hhvrrGsqxTap/fDryy+/iQdMXiLPVfWCC1l/C3cYyLE2PhTJ6KrK/rYP6lmb7NrpybVA+/h1frs9AVFQCMorO4Eb7dawN15WPXHMO9++XI3dKBILD4pG6vgxXnpzAIm/5D70QwYgrbcfq2q4aMUFfvyV66np3JbxCcX1tEpY7WV5/T1KmTscfmu78R+9OhXp1Om68H4N8n/75sknXzxT68BA9BKUY5oaN2Rl49P44THDov8sKXUnd1zkz0/Fwth9c+yuMh7lia3Yazs6dhPqCDKhzEvBRgD2G9VvYD8O4uEl4kheNaXbd18mglGf1oGwsyYSN/oMhonfgEqqwfJSFQYmjyJRCNbME6oql2pZe6tdPUbNvkqH+W6b1B6zHr7gG1Vipfm/knQdObgwy1u+2DGWow7ow3fLaoGz41HDNTYhYbGsEjuZ7aqeV2+s0Lc6NGN2L1oDUYnLwVWJ4UFfBcLS3vD5Lg1IIRyzJSkdjxki46Y+nr6akpaNVNQVfhg1H9EhvrJ2ThtbcMMT3c+uox6BUeGJbViJOvp+G5tWT8WWw40vL9Afh6I8KVTr2B5ov7w3P8AQ8WBKFd0fYad5zJ7wzJRmP1yRikXP/nD/hGoCTa9JRMtZOOz0iKknz/igR1eX9Z1DKs37X2+QaYqcg7ENQ1n6ebL5+l6UoRRO2xkv1h+CD34DmF+24197hBR7oy6XldV3v9fA1BKULohYU4t14XffdJrQAZY//QoOmy/39D8XYrMqC0sN4jK+DJUEphXLa1ClozglHSj/eFXdxc8N4DztN11h/ftyCUNWPXfsOPQVlB+nLPiYmCY/zozB1ALqxIQnJ+HOZErFdQqa3hHDGpkUZ+M700oiNJ75YOQvlkbpg6wsh7LFwTjqas/wxSr/PDMree+uD8uSOZIxVKk0EY4Q+TLoGpTk2HuOQkr0G6/Z+g9L6FqhvH8AkC7q2r6vrLT0rl5KSjOZl45Hl+nJ5fxJ2o1FemIYdPpbvvyUsCUqJ7hrsJKjc+nn7w9yxe9ksVCU4my3vDWHnh2OFqSgyuUwjtfrXvj8LF+L7vh0xzBelhen43N9YP4Oy9wZxUCqQWdqGGwenG67ZiIQ9qMZ/kK1psVgalHJd7ws7oo3bt/NCUEwovPRd356CUvpw2bl5wsPZ+OESrjk48uIBPp708vJdvY6ut3QOE5Im4UFevOacdS7rK+muenhwIN4baWz9SC3KC4XJULlavv+WMBeUQnhi15Kp2B1gspyPEnWaoFzVT13XDo5B0VCrkpDbT9d2JULhh7K1M3E03OT82Y7Et6veweFxfX9MSNj44sfClx9vYlD2zqANSmnaa3E5brVcwta5iQiPz8SGM4/RdF6F0VI4WhiUDXdPaW8WhY2fjpXld9F890skmNzMUT88jbWzExAamYx5+2vQ1HwIKfoL33JBmVL8COprBzEvbTxCxkVgYn4ZatovYUXAy8sPlO6CUto/5fgJuK9KwadBpo+4OMOny4V9j9QPkbBqFXxfscsclpiCJ7mxWO7vhjBvL6jmpOFpzliEdzlfvalf2n93VxeMGy4JQJlqJkqjdNNBTjaacjvMz0zHo4WRWOCne/xp+/x0PHk/GCH9sP0O0nZysmaiedYouJj5HEh6d3zSY0HpaF2ZhM0hHojSXuNNRcvySKToP58dele/LfxHuCLMxMQJkxiUvTSog1JqSSRvKcNp9VPcabmHs+U7keqv+21rcde7eDXyy+tw4/mfuH7tJxQkDTduT+GPjF0VqHz4DOrWR6g6ewjZ0cZuj1zXW3hOxQfHalD7tA0P2p+jvrEK+3IjB8njQQoszTL/wPSPSpPrYmIsEo4Ca37+BCNecb+FjRNmT05AtfaB9mmozgpDVpdrtL2tXwqS5XPN73/DFN17KBw8oMqYhBsF7+DJ6mm4NHscpne5vNCX45MIt2CcXzsdX/ibv6Pep/Nn54qc1CTU5mfgiSodNe+GY14/nT9z2PXuPasFJfUPXVB64nYv/9ZbuK9A1rUXmJcTYLa8rwa6fjlD/fgGsn7Tv/W+fYRB2RMG5RAnFDbw89X9nXdv/tZbkfZvrKo+gdBedEstMdD1yxnqxzeQ9Rv/1lvHv5+vLb9JGJRvuVGb1MjbNcfwiE9/G+j65Qz147P2+SMdBiURkQwGJRGRDAYlEZEMBiURkQwGJRGRDAYlEZEMBiURkQwGJRGRDAYlEZEMBiURkQwGJRGRDAYlEZEMBiURkQwGJRGRjCERlMI1FRtPVaJkwwTtfzE3twwR0UAZGkHpvQDFdx/hSvFsOA/BoBQu/qgomIpdfn0fNIqIXj92vQeYbhCpNFQlubM1TDREWTUohX0kFpdUofpxG+6/aMONxip8lhthGJwrZncjHgJazWjE5i7jwaSXtBrKDcu1lyJDv75QjEb6J+WofNAK9fPHqDrzJeYqHTrVMdAcR0egen4Qxg7AoPxE9HpYNShHrjmH+/fLkTslAsFh8UhdX4YrT05gkX5QeLsRARgTEoIxCdtwwkxQOnoH6colY6diw+VnuF31AYL0QSkNR3u3sQxL02OhjJ6K7G/roL61FzE28qElRDDiStuxurarRkwItyz0xDBXbM1Ow9m5k1BfkAF1TgI+CrA3jFNOREODVYNSub0OzZc3YrRMa0t45uOYmaA0lGu6t2GbL+JO83Fk+XXM80beeeDkxiDjcm7LUIY6rAuzJCjt4OCrxPCgroLhaG9Z0HmGJ+DBkii8O8JOs44T3pmSjMdrErGonwfoJ6KBZdWgtAktQNnjv9Cg6XJ//0MxNquyoOwyrrFELihdU7/ExbZ6bJ/iZpgnRAg++E3TFX/RjnvtHV7gAZqwNX7gg0oIZ2xalIHvQkzG0LbxxBcrZ6E80q7TskQ0uFn9Zo6NxzikZK/Bur3foLS+BerbBzDJqXOQ9RSUwncBvmv+E8c/CIetSZe2IyhP7kjGWKXSRDBGWDCka1+73sLOD8cKU1Gkv4ygnSccsfb9WbgQ79xpWSIa3KwWlEIMg52bJzycjYOuC9ccHHnxAB9P6hxE3QWlsA1DwYUW/FY6H15drvt1dL0v7Ig2zrPzQlBMKLws6Dr3testFH4oWzsTR8ONrUdhOxLfrnoHh8fxMSGiocSqQZlS/AjqawcxL208QsZFYGJ+GWraL2FFgNAGlYe//kaN9mZOE3bP1k/7ucPmnwrE7qqD+l4p5kXr52v5w91OF2TSzRz1w9NYOzsBoZHJmLe/Bk3Nh5CiLx9IuseC0tG6MgmbQzwQNdIba+ekomV5JFJsB377RNR/rNr1Fp5T8cGxGtQ+bcOD9ueob6zCvtxI7eNBHV3nro//SJqrCuH1T3fknDFTht+gCtEFkVD4I2NXBSofPoO69RGqzh5CdvTr6/YKO1fkpCahNj8DT1TpqHk3HPPMXIMlosHN6tcoiYgGOwYlEZEMBiURkQwGJRGRDAYlEZEMBiURkQwGJRGRDAYlEZEMBiURkQwGJRGRDAYlEZEMBiURkQwGJRGRDAYlEZEMBiURkQwGJRGRDAYlEZEMBiURkQwGZR8IGydkTU7A1bwZeLR6OmrmRmDBCA4cRvSmYVD2khACMRMn42leAtYGeSDC2wurZukGD0tWcPAwojeJVYNS2EdicUkVqh+34f6LNtxorMJnuRH6wcU8tIOHVX0SY1w+cD1O6QcPE8qtON96BB/uuo6GxxexKjEV2+r+wM0bh5Hp9zpGWXTCxkWz8GuMg3GerTREbRp2jmRQEr1JrBqUI9ecw/375cidEoHgsHikri/DlScnsMjbwqBsr8OO2XGYWdyA23UHMCcuAzvrgDNbQjttxxwhghFX2o7VtV01YkK4fNAJ4Y5Pl8/Cv0NN53niQEEGDgQyKIneJFYNSuX2OjRf3ojRw14OFouCEkeRKbU+M0ugrlgKe83PqV8/Rc2+SZ3qMkcad9vBV4nhQV0Fw9H+1YIyNHYS7uYoEc+gJHojWTUobUILUPb4LzRoutzf/1CMzaosKPXjXvclKGs/TzasM1BMg1LY2MHbUZrHoCR6E1n9Zo6NxzikZK/Bur3foLS+BerbBzDJSRN+AxyU7HoTkaWsFpRCDIOdmyc8nG2N81xzcOTFA3w8SQpKBTJL23Dj4HQM0wSgtjxhD6rxH2S790dQ9rXr3c3NHNV07PFlUBK9SawalCnFj6C+dhDz0sYjZFwEJuaXoab9ElYE6ILGa3E5brVcwta5iQiPz8SGM4/RdF6F0VI4Wr3rPezlx4PeSUXLyiik8vEgojeKVbvewnMqPjhWg9qnbXjQ/hz1jVXYlxupfTxIWy58kLylDKfVT3Gn5R7Olu9Eqr/ugW5rB6VE2DgjKyUB1Xkz8ESVjuvvRWGZt7GFTERvBqtfoyQiGuwYlEREMqwalJ4jXbH98Fzt60BMExH1B6sFZUeohY73HZBXc9skIuoNqwVlwc5p3bYE+2NaeiUi6g+8RklEJINBSUQkg0FJRCSDQUlEJINBSUQkg0FJRCSDQUlEJINBSUQkg0FJRCSDQUlEJINBSUQkg0FJRCSDQUlEJINB2QfCxglZkxNwNW8GHq2ejpq5EVgwQjdUBRG9ORiUvSSEeHlwsVmpaFkeiWQOLkb0RrFqUAr7AMz4pBznm59B3foIF88dxHsRTrqyoI04jTqsNxljWwg/rLr4Ny7vjtdN2wZi9leVqH7SioZbp6Ba8inOoArLRg58UHU7XO3aNOx8DdsnotfHqkEZtbMe926XYWVWMiKikjHv4HWoG/cgWhpZUQRCVQ1UFoUblhe+KlT8fRtb4nRBNCr/NNQtl7FtXiIiEudje0WjJlotC0ohghFX2o7VtV01YoJJOHdHCHd8unwW/h1qOs8TBwoycCCQQUn0JrFqUNrYOcDO1jgtgjdpWoSXsMJPFzSBm66iua4IY/XD1/qsOYcHmiCN1AapHeYea0dd8TTY6MsVacWotzgo7eDgq8TwoK6C4WhvyfrGoAyNnYS7OUrEMyiJ3khWDUqXuALsv9yEG8//wr32do0XaMZvUIXogkaM2YD/6LvfQngj92y7sdstfLDiAnBmq9JQnxj7Ic6+tq63MSiFjR28HaV5DEqiN5HVglKIWGxrbEdVSS4SI5UYq9RI24PzpkFp0v0WXitxtP02PortKDMTlCGbLb5Gya43EVnKekHpmosfoUZRojFUxPiduGISlJKAjVfQfH0b4padwD19t1u7rLDH/J//Rs2+Scb1J3ymWft1db27uZmjmo49vvLrE9HQYcUWZTyK7vyN6mOFmDw+AhGpi7GzvB7XuwSlrvtdjePnn+HSrrhOdQRvrsb9+8eRHe4Oe/dwLPm+AY2vres97OXHg95JRcvKKKTy8SCiN4pVr1G6JqpwsFqNW22t+P36cRRkfYRfugalCMCaq0AzjN1uQ5lLAlRnHuAeNOVtd7C/qBiVrykoJcLGGVkpCajOm4EnqnRcfy8Ky7xtzS5LREOXVYOyPwhhAydvf3i72kIot+I8ziHHky06Iuo/QzoopZB08wvBmBCNseFIKapEU/N+JOqvYxIR9YchHpSeWHYOeCh1vf9uQ/3NU9g8zcfsskREvTXku95ERAONQUlEJINBSUQkg0FJRCSDQUlEJINBSUQkg0FJRCSDQUlEJINBSUQkg0FJRCSDQUlEJINBSUQkg0FJRCSDQUlEJGNQBKVwTcXGU5Uo2TAB9vxfkkQ0yAyOoPRegOK7j3CleDac+xCUulEYL2Pl6KERtsLGCVmTE3A1bwYerZ6OmrkRWDBCYXZZIrKeN6rrPZSCUmh+Ibw0ONmsVLQsj0QyBycjGlSsGpQxuxu1/51c+x/K0YjNMcaAEMIFi34Fag4UIP/nG7j5rAXXasuwItHduIxTJJYcvozalmeor69AwcIdnYJSKEYj/ZNyVD5ohfr5Y1Sd+RJzlbrhZYVCCdXlNtz4cT6G61uxDsmf42p7A4omOhq2MVC6He52bRp2vqbB0YjIMlYNSrsRAbrxbhK24UQ3QVl/5wSKFkxAeOwMrK64j+Y7exGjD7bw7XV48Og01s6OR3jCHGw48juumwRl0PpLuNtYhqXpsVBGT0X2t3VQ39Ksb6MrV4Rvwq9tauxNd4Wwi8WWur9w8fMUOFjQ/RciGHGl7Vhd21UjJoRbsr47Pl0+C/8ONZ3niQMFGTgQKL8+Eb0+g+MapWc+jnUTlI0lmbDRB5eI3oFLqMLyUUJT7oXlleg01rdI2osafVAK4Y2888DJjUHGcrdlKEMd1oXp6xMKhG65CnXDXszbcgXqxv1IcrIspISwg4OvEsODugqGo718HaZBGRo7CXdzlIhnUBINSoM+KGv2JhnnBa7HKf2430KE4IPfNEG4PtBYbnKNsqO8+UU77rV3eIEHaMLWeJPt2EZgfW0b7r9owu5UF8P8gWYalMLGDt6O0jwGJdFg9MYH5ckdyRirVJoIxggHk+0Mn4X99/9E459PcXipn2G+HHa9id4eQzgodV1rua73hR3RxnI7LwTFhMJL3zUWwgMZh++h6UIh4haVo+GPE5jva1lI9b3r3c3NHNV07LFwH4jo9bBaUEpB4+EfYnIzR9P1na2f9nOHzT+dewxKaTpih/5mTmY8wuLnYOPRm6jvcjNH/VC62ZOA0MhkzNtfg6bmQ0ix05V7ZJbgWttVrA5TaPZnNHJOt6C+Yil8LLiZ01dCDHv58aB3UtGyMgqpfDyIaFCxYlDqusYdjweZaq4qhJcFQSmco7Hk+6uobXmOhlunUJi7u8vjQf7I2FWByofPoG59hKqzh5Ad7awr85iFA/f+i9PbomDbEYzBKvz8/A+U5FjeBe8LYeOMrJQEVOfNwBNVOq6/F4Vl3rZmlyUi6xkUXW8iosGMQUlEJINBSUQkg0FJRCSDQUlEJINBSUQkg0FJRCSDQUlEJINBSUQkg0FJRCSDQUlEJINBSUQkg0FJRCSDQUlEJINBSUQkg0FJRCSDQdlPhLCBf3QA9iz2eS3/IZ3kucSOwb53vRCk/4/2RL31xgSlUIzHvHePYuekJNi95qASw+wxR5WCluMpKJs/HG5dti9cU7HxVCVKNkyAPUP0JQN1fuxDAvD9gelo/S4G7/uYX4bIEoM6KIXwxbzFanw1Qb4uMXwp9qhqsW9iDBT6L1twSiV+3XxP6+SmHzDDZPTF/iKNfRP+/kS0lcZioY+N+WW8F6D47iNcKZ4N5z4Egekok+bKh6r+Oj/mCBvNL7H1U9D2TSjibPtW95t6/kneIA/KKVhX2Ij1IeYDSI69kz98PQIRmPAjTq7+GMoBaM0Jex/8+Es6SifbmS3vT4Phiyqc/ODsMrSCQth74uuyDFTM6Nt7xKB8e1ktKIVIwOo1Z7DQU2i6zTPw4Qdq7BrvoZnvjGlz67Et3FXTJcvD55tOYkXsR9idX4fywqvYlzEbPsN0H1ShmI1tG9SGVmN5ZjqGmQnD4MnncXLBYrOtFQfPuVi14CxK1zXiaMF/sCUpHq6vEKgiLhItFeORZeY6WMzuRuOAad0Nx3ugAPk/38DNZy24VluGFYnuxmWcIrHk8GXUtjxDfX0FChbu6DJ42mikf1KOygetUD9/jKozX2KuUjf8rVAoobrchhs/zsdw/fE4JH+Oq+0NKJroaNiGpYTTOIzJ+x4LLtxEUqhl50fYR2JxSRWqH7fh/gvNvjRW4bPcCMOlkZ7OjyS9pNVQbliuvRQZ+vV7On5TQrP89MLp+O8231fq2suef9sApO8sx1n1H7jTcg/nf/0X3gmxf6keGvqsHJSnsWC4gG3wv/DVyip8GqMJSkUGPlx7GNM03WQxZg9+2nAFu6ZmI9onHNFx3+DIpjqoAnUtTGHjBk9Ni9HXYwLylqtxYGKIme3YIfXdO/j3tMSXy5znYJvqKoqS0hHqpURY2G4c2nAZy0ZZ/mVyy0gADisx3swX0G5EgMlwvOaDsv7OCRQtmIDw2BlYXXEfzXf2IkZfV/h2/XC8s+MRnjAHG478jusmX1RpON67jWVYmh4LZfRUZH9bB/Utzfo2unJF+Cb82qbG3nTNLx27WGyp+wsXP0+BwyuFxVgELT+M987/iZxDXyBivC9sLFx/5JpzuH+/HLlTIhAcFo/U9WW48uQEFnnr1u/p/EgcvYN05ZKxU7Hh8jPcrvoAQfrtyx2/qbHZycBXQfB/hWO36Pw/OoN1cxIQpnn/8svvQv37dij1v8jpzWHFoIxHwZqTmOdug5j0n7Ei9VvsjHaHIugz/LhgkbZV5xV/HCdXbcO4jhakSEFhoRofKRVd6kpG4domfBj6ctdKiFAsydO0VmOGv1Q2euIp/DJ3Ppz0Xx5deKuxeZzlH3TPzCTg23GI6OELKDzzcayboGwsyTQEj4jegUuownJNUAvhheWVwKVdccZ1kvaiRv9FFcIbeeeBkxuDjOVuy1CGOqwL6zgeBUK3XIW6YS/mbbkCdeN+JDlZdmzS/vm8LwVkCxYXf4awKB+LA7KDUhM0zZc3YrRMcJg7P53KNb/swjZfxJ3m48jy65gnf/ymAudPAg6GIMTCY5A//x5YcqZLecB6/IpqrAp8tfNEg5+Vg/IXvOsWh1WLtyEqQgpKD0RNr9Z0wb21y4yf8TuOz5pu6E4L27n4eGM18nw7fxCF0xLs3XQBi71e/oDquufXsMq/yzrCXtPFv6v5ojWhYkOHuzix6SryXqFF2deg7G7c8o5xz0+uDzSWm1wj6yhvftGOe+0dXuABmrA13mQ7thFYXyt1fZuwO9XFMF+OVH/80TYs2rUCnq7ml5FjE1qAssd/oUHT5f7+h2JsVmVB6fHycnJB6Zr6JS621WP7FDfDPEuPv8OrB6Vl579TuctSlHazfRrarBiUmoBcfRyzQ7Zg3/QJcIj4Dp9EJyMvvxxzXKQPoheyFqqxf4JJi8FnE77bVIqZjp0/iMKvCEc2fodUM3c1hec6HNpUhne6riPCkLtSjZ0JSviPCDHhB1czXbfuaLve3ysRa6WgPLkjGWOVShPBGGFyd18Mn4X99/9E459PcXipn2G+HCFs4RSTj8lfN2FVVR0yCt6Hp9ur31Sz8RiHlOw1WLf3G5TWt0B9+wAmdWnV9hSUwncBvmv+E8c/CIetyTm29Pg7hC7UdL33ByGAQUm9YOWgLINqxk9QBShgLwVlWhEO5eTDS/NhFmIiVKrb2DTO1rCObdj/4YTqU0R2+bA7RZZouuhbMc7Ml8A2tBgVql2I6lImdddVKumOunG+rVMQgoeP6PSFlCXdzDkRh/fsu1+nd0Gp61rKdb0v7Ig2ltt5ISgmFF76fZG6hxmH76HpQiHiFpWj4Y8TmN+lNS5H6vY6x+oD8+INvKN6D8O7/NIxR3psys7NEx7OxvdPuObgyIsH+HhS5/W7C0phG4aCCy34rXS+9jPRqcyC4zcuOwyzNkxHW5HlN3Pkz78Hctj1fmtYMShjkb/6EkqW/gtxmhac1KL8dmUVvkjS/YbWdafPYZGn8UMXmHwGJxcug7vmwy59KUZpb+QEIim9CicXFSJEO+0PN5OWpVTvicLDmDMqSLtsR7kQ/piXcxc/zFuFGO9xCA5cjI0rbuGrCUqzd867Ixx88OPPM1Axo/PdTilgPPz1NyK0Nys0Xd/Z+mk/d9j807nHoJSmI3bobyZkxiMsfg42Hr2Jev0XVSqXbiaoH0o3GxIQGpmMeftr0NR8CCn6O/AemSW41nYVq8MUmv0ZjZzTLaivWNqrvxySLlW4aAJzyteVSAiXX18Kp5TiR1BfO4h5aeMRMi4CE/PLUNN+CSsCpPMvd34UiN1VB/W9UsyL1s/X8oe7/vjkjt+wL84++OGnDJyc+Wp3pOXO/5h1F3FXU144Ox7K8dOR91MT1NeLEMqbOW8c6wZlgRo/ZaZrW3COUqtw0xlkj9B9yIT/J/hxwzeYrNBPCwWS59xGWcYU7bRHbJnhsSBTUh3SI0eG7ThMxNL3L+En/WNEpuUO3guxIecyytbdQpmmy78xcSLcX/FDLgVCxIJJaPspCeuCTVpP+q5Z18dbJM1VhfCyICiFczSWfH8VtS3P0XDrFApzd3d+PEXhj4xdFah8+Azq1keoOnsI2dHOujKPWThw7784vS3K2EIOVuHn53+gJMfyLnhX0p9qDrPw0oTwnIoPjtWg9mkbHrQ/R31jFfblRmofD5I/P+7aFttLZabnp4fjN+yDvQtWbk9D29ehSHjFP2WUPf+2AZjxaTnOqZ/iTst9VPLxoDeW1YLyTSK1jpJzJuDJiWm4ssoHI3rRYqP+5xg9FlVHMtByIAzTPPieUO8xKPuJ1LL0CPTB2jleL11PI+twivDHhhQ3eOp7JUS9xaDsA8+Rrth+eK72ldNDb1qOr/3/4OT/TtK+9maa3hwMyl4KHe+r/dLxdWi+mntPTSW5empDr7ev5uqkoYtB2UvSl83SlgunB9+09NoTKewsbTmam5Ze6c3BoCQiksGgJCKSwaAkIpLBoCQiksGgJCKSwaAkIpLBoCQiksGgJCKSwaAkIpLBoCQiksGgJCKSwaCkIU14OqL8355o1BqBvWbG3RmspHGJig507Lsnziww/uNnGlwYlDSkCS9HVPzggQ8jFAjxVcDbzMBiwjUVG09VomTDBIvHzHkdhGZfPEdK+22Lwo89cT6bQTlYMSipV8wNjmYNuqB0xwozQxV3EN4LUHz3Ea4Uz4ZzH4LSdBRGc+W9Jf3T50VbGJSDGYOSemUoBWV/YVC+vd7qoBT2kVhcUoXqx224/6INNxqr8FluhH7wK91wpFWfxBiXNx1OVrkV51uP4MNd19Hw+CJWJaZiW90fuHnjMDL9Xu2L5JR9DmuObtWOLmmuvDcMQXagAPk/38DNZy24VluGFYnu+vK+HV9H/Ve+WI6lZddR36qp/7cy5Ovr19anGI30T8pR+aAV6uePUXXmS8xVOhjKx2yuRvPlXVi0pxI1Lc9ws+ki/rU03NA97un9MWyjh6CM2d1oMihZN8MFd3N+tMs4RWLJ4cuo1exbfX0FChbu6DK4W/fHJxRKqC5r9vnH+Riu31+H5M9xtb0BRRMdDdvQLsugHPTe6qAcueYc7t8vR+6UCASHxSN1fRmuPDmBRd4WBmV7HXbMjsPM4gbcrjuAOXEZ2FkHnNkS2mk7cswFpRDBiCttx+rarhoxwaLhYnVBUH/nBIoWTEB47AysrriP5jt7EaPZTl+Pr6P+uoZybJPqH5+O/PK7eND0BeL0wwVLw8nebSzD0vRYKKOnIvvbOqhvabavH8VRG5SPf8eX6zMQFZWAjKIzuNF+HWv1x9fT+2PY5x6C0m5EgMlwuOaDsrvzIy0Tvl0/XO3seIQnzMGGI7/juklQyh2fInwTfm1TY2+6K4RdLLbU/YWLn6fAweR9ljAoB7+3OiiVmi9C8+WNGG1miFqLggRHkSmFTmYJ1BVLtS2h1K+fombfqw0FYD4o7eDgq8TwoK6C4dhlgH9zOoKgsSQTNvp6RfQOXEIVlo+yMCh7OL6O+m+Z1h+wHr/iGlRjpfq9kXceOLkxyFi/2zKUoQ7rwnTLa4Oy4VOEdawvYrGtETia76md7un96WDRNUrPfBzrJii7Pz9eWF4JXNoVZ1wnaS9q9EFpyfFJQyyHbrkKdcNezNtyBerG/Uhyenk/GZSD31sdlDahBSh7/BcaNF26738oxmZVFpQeurK+BEnt58mGdbojRhQgq6OV+Buw5voLQ6vxvbxXa5Ga0xEE3Y0b3tfjM1u/y1KUoglb46X6deN2N79ox732Di/wQF8uLa/req+Hb0dQaeqMWlCId+N13d+e3p8OfQ3K7s+Pbv9Prg80lptco7Tk+LTr2EZgfa106aAJu1NdDPNNMSgHv7f+Zo6NxzikZK/Bur3foLS+BerbBzBJ81t/wINS4QFXfStx1JorWFP+Ofz1067u9prt90/X29pBeXJHMsYqlSaCMUL/CE/XoDSnu/eno9zaQdnT8WnXGT4L++//icY/n+LwUj/DfFMMysHvrQ1K6cNp5+YJD2fjh1O45uDIiwf4eJL0RVAgs7QNNw5OxzD9F1kk7EE1/oNsd015H4PS1EB2vbsPgr4dX0f9cl3vCzuijdu380JQTCi89PvfU1DKvT+GeQMWlLr9l+t693R80i+jjMP30HShEHGLytHwxwnM9zV/rAzKwe2tDsqU4kdQXzuIeWnjETIuAhPzy1DTfgkrAnQfZq/F5bjVcglb5yYiPD4TG848RtN5FUZL4THAQdlXckEgTffl+Drqb7h7SnszJGz8dKwsv4vmu18iweRmjvqhdDMkAaGRyZi3vwZNzYeQYqcrlwtKufdHu1w3QSn9ovHwDzG5maPp+s7WT/u5w+afzrLnJ2KH/mZOZjzC4udg49GbqO9yM6en4/PQnLdrbVexOkyh2Z/RyDndgnrNefTpcrwMysHvre56C8+p+OBYDWqftuFB+3PUN1ZhX26k4fETIXyQvKUMp9VPcaflHs6W70Sqv0JX1o9BORAsCcq+HJ+h/uLVyC+vw43nf+L6tZ9QkDTcuD2FPzJ2VaDy4TOoWx+h6uwhZEc7G8rlut5y7492mW6DUtc17ng8yFRzVSG8LAhK4RyNJd9fRW3LczTcOoXC3N1dHg/q/viExywcuPdfnN4WBduO/Q1W4efnf6Akp3MXnEE5+L311yhpaNMFpSduD/G/9b59hEE5mDEoaUgTChv4+er+zru7v/UerIx/663j7zp09v1t81YHpa/9/+Dk/07SvpqbJiKSvLVBmeTqqQ3F7l7NrUNEb6e3NihNW47mWpamyxLR243XKImIZDAoiYhkMCiJiGQwKImIZDAoiYhkMCiJiGQwKImIZDAoiYhkMCiJiGQwKImIZDAoiYhkMCiJiGQwKDWEayo2nqpEyYYJ2v/ibW4ZInp7MSg1hPcCFN99hCvFs+Hch6A0HaXPXPlQ5OYTiB+Xz0Rr4Ts4FMRfIvR2YlD2ozcpKKVxXEKUMfhNlY5TKZE4oWJQ0tvrrQ7KmN2NxgGnuhvO9EAB8n++gZvPWnCttgwrEnWD82uXcYrEksOXUdvyDPX1FShYuKPL4FOjkf5JOSoftEL9/DGqznyJuUoHfZkSqsttuPHjfAzXt2Idkj/H1fYGFE10NGzDEgMziqMdlsxIwof+DlAIH3zDoKS32FsdlHYjAkyGMzUflPV3TmiHYw2PnYHVFffRfGcvYvSBFL5dP5zp7HiEJ8zBhiO/43qX4UzvNpZhaXoslNFTkf1tHdS3NOvb6MoV4Zvwa5sae9NdIexisaXuL1z8PAUOrxh45scFD0ZcaTtW13bViAnh8vVL47kohumWk0ZrZFDS24xdb42eBshvNB3gP3oHLqEKy0cJTbkXllfKD5B/cmOQsdxtGcpQh3VhHQGkQOiWq1A37MW8LVegbtyPJKdXDyPzQWkHB18lhgd1FQxH/QD9lmJQ0tuOQanRU1B2N+5zx7jRJ9cHGstNrlF2lDe/aMe99g4v8ABN2Bpvsh3bCKyvbcP9F03YnepimC9HjChAVkcrUbOdNddfGFqN7+WFml2ntxiU9LZjUGoMZFCe3JGMsUqliWCMMBlSVQyfhf33/0Tjn09xeGnngfF7IhQecNW3EketuYI15Z/DXz/t6m6v2X7fut6mGJT0tmNQavQuKHVda7mu94Ud0cZyOy8ExYTCS9/1FcIDGYfvoelCIeIWlaPhjxOY7/vqYcSuN9HAemuDUgoSD/8Qk5s5mq7vbP20nzts/uncY1BK0xE79DdzMuMRFj8HG4/eRH2Xmznqh9LNngSERiZj3v4aNDUfQoqdrtwjswTX2q5idZhCsz+jkXO6BfUVS+FjEniWGJi73sPg7uqCccMlAShTzURplG46yMnG7DpEb6q3OCh1XeOOx4NMNVcVwsuCoBTO0Vjy/VXUtjxHw61TKMzd3eXxIH9k7KpA5cNnULc+QtXZQ8iOdtaVeczCgXv/xeltUbDtCLhgFX5+/gdKcizvgg8U6RfJ8rmz8OyDzJc0TBludh2iNxW73kREMhiUREQyGJTUa772/4OT/ztJ+2o63XU5oqGOQUm9kuTqqQ1Fc6/mlicayhiU1CvmWpId00RvGgYlEZEMBiURkQwGJRGRDAYlEZEMBiURkQwGJRGRDAYlEZEMBiURkQwGJRGRDAYlEZEMBiURkQwG5RtEOMRDWbABgb0YToKIusegfIPYzzqOVVX/xphXHBNHjnBNxcZTlSjZMAH2/TjcBNFQwaB8QwgxAhEH27C8aIZhHPL+IrwXoPjuI1wpng1nBiW9hRiUbwjhtRpza+8jJVZhtpyIes+qQSnsAzDjk3Kcb9YNvnXx3EG8F+GkKwvaiNOow3qTMaiF8MOqi3/j8u543bRtIGZ/VYnqJ63awb1USz7FGVRh2cjX0+oR9pFYXFKF6sdtuP+iDTcaq/BZbgTsNK0uaSjanDNA1ScxxuVNh7tVbsX51iP4cNd1NDy+iFWJqdhW9wdu3jiMTL9X33+3pZex5sReeA+zfN2e9l8qj9ndaBxwrctwvpL0ktZOg7Jpl2svRYZ+faEYjXTN+1v5oBXq549RdeZLzFU6dKqDaCiwalBG7azHvdtlWJmVjIioZMw7eB3qxj2I1gZNIFTVQGVRuGF54atCxd+3sSVO90UclX8a6pbL2DYvERGJ87G9olETrZYFpRDBiCttx+rarhoxwSScezJyzTncv1+O3CkRCA6LR+r6Mlx5cgKLvC0MyvY67Jgdh5nFDbhddwBz4jKwsw44syW003bkCBGKhGPAwlURZsu709P+S+V2IwJMhvN9OSgdvYN05ZKxU7Hh8jPcrvoAQfqglIbrvdtYhqXpsVBGT0X2t3VQ39qLGBvLzi/RYGHVoLSxc4CdrXFaBG/StAgvYYW+RRW46Sqa64owVv/F89F8sR9ogjRSG6R2mHusHXXF0wzX5BRpxai3OCjt4OCrxPCgroLhaOHNEOX2OjRf3ojRZlpxFgUljiJTOpbMEqgrlmpvlKR+/RQ1+15t3BkR9ilyrtcgVj9MrqV62n9TwjMfx8wEpaFccy7DNl/EnebjyPLrmOeNvPPAyY1BxuXclqFM86tsXdir7SeRtVk1KF3iCrD/chNuPP8L99rbNV5oungm42aP2YD/6Lvf0hcv92y7sdstfLDigqb1tVVpqE+M/RBnX2PX2ya0AGWP/0KDpsv6/Q/F2KzKgtJDV9aXoKz9PNmwjhwhNC3rTU1YXVIIF/0vDEv1tP+m5ILSNfVLXGyrx/YpboZ5HeOmN7+Q3tcOL/AATdgaz6CkocVqQSlELLY1tqOqJBeJkUqMVWqk7dGEh0lQmnS/hddKHG2/jY9iO8rMBGXIZouvUfZH11ti4zEOKdlrsG7vNyitb4H69gFMcpKC/TUFpSINUyv/QtZ8b7Plcrrbf9NlegpK4bsA3zX/ieMfhMPWJKg7gvLkjmTde2sQjBEOlp9fosHAekHpmosfoUZRosmXa/xOXDEJSknAxitovr4NcctO4J6+261dVthj/s9/d+qmigmfadZ+PV1vqSVn5+YJD2db4zzXHBx58QAfT5KCUoHM0jbcODgdwzr2OWEPqjVt5Gz3/gtKxZQS5FX/glBX+X02Jbf/nZbtJiiFbRgKLrTgt9L58DIJSW2Zvut9YUe0cZ6dF4JiQuHVz895Eg00K7Yo41F0529UHyvE5PERiEhdjJ3l9bjeJSh13e9qHD//DJd2xXWqI3hzNe7fP47scHfYu4djyfcNmq/z6+l6S0GTUvwI6msHMS9tPELGRWBifhlq2i9hRYBu+16Ly3Gr5RK2zk1EeHwmNpx5jKbzKoyWwrEfglIIZ4z9159YuXd+p9acJeT2X/pF4uGvv1GjvZnThN2z9dN+7rD5pwKxu+qgvleKedH6+Vr+cLfT7Yt0M0f98DTWzk5AaGQy5u2vQVPzIaToy4mGCqteo3RNVOFgtRq32lrx+/XjKMj6CL90DUoRgDVXpcdTjN1uQ5lLAlRnHuCe9FhK2x3sLypG5Wu8Rik8p+KDYzWofdqGB+3PUd9YhX25kYbHa6TLA8lbynBa/RR3Wu7hbPlOpPrrnnPsl6B0XYzMmj8wbbK92XI5Pe1/R9e56+M/kuaqQnj90117aeGlMpP3Tyj8kbGrApUPdY9/VZ09hOxo55f2g2iws2pQ9gchbODk7Q9vV1t9+JxDjufrCUprc5x/GgWVBzFa8XYcL5G1DOmglELSzU/f5RsbjpSiSk3Xbj8SX7EbOhRJD9/HHH6BJRsnaX5mUBINJKsGpa+XE07uStK+9mZ6lOdoXL2r7/L93Yabjafx2w8zDeVERP3BakHZEXpJYcMH5NXcNomIesNqQXmgMKrblmJ/TEuvRET9YcjfzCEiGmgMSiIiGQxKIiIZDEoiIhkMSiIiGQxKIiIZDEoiIhkMSiIiGQxKIiIZDEoiIhkMSiIiGQxKC0n/0s0/OgB7FvvA5zX9WzOX2DHY964XgvgfwYms6o0JSqFIRNSKSszMmAxFPweZGGaPOaoUtBxPQdn84XB7TUFpHxKA7w9MR+t3MXjfx/wyRDTw3pyg9F6DWbuaMWdGgmGcb0uJwL14/6tTGOf48nrS2DLh709EW2ksFvrYvFQ+0ISNJqTXT0HbN6GIs2XLksga2PXWsE38BXkff/bSSIISYe+DH39JR+lku5fKXhdh74mvyzJQMcN6+0D0NrNqUAq/HXjvq0rExu/AzG1PkLv3HuYsXAjXYbrAEmIqJu3+L9KmLcHkDWos/ewx3lv9KXxd9OW272H6F8CK/Tq5S+Z0GhZB+H2iqz9xN94peqqpX4057y+Ai6Z+aQTDcav+NqxrKm/jZrjo6xFxkWipGI8sM9cJhX0AZnxSjvPNusGzLp47iPcidP8LUwRtxGnUYb3JGOHS8A2rLv6Ny7vjddO2gZit2b/qJ61ouHUKqiWfmh2XXDqm6YXT8d9tvtoByEzLiGjgWTUobcb/iGX7biNjzjKM8ovGqOQyZH/1GJNCdV1c4ZyPWV+1YMGqvQgJjsGIcWuRvhNYkJWoK7dxh7NXCNy8piDpI+DdDGWn+hWxZVi+7w5mZuXBd3QMfKccx8Kv/kCypn4hbOHgIa0bgWgVsHDRe5qfpWkNN1dD4LplJACHlRhvJqCidtbj3u0yrMxKRkRUMuYdvA514x5Ea5YVIhCqaqCyKNywvPBVoeLv29gSp6trVP5pqFsuY9u8REQkzsf2ikZNtJofRXJsdjLwVRD8GZREr51Vg9J9Ri3ytu2Bp6EFmYbkPcC0ON2g/GLMvzTBdg0x3sZw8F/UgmVL5xqmtcuJaUjZ04608Z27psNnXkfedk2X2lD/dEzeC6TF6oaM1c2LRPw2YFaKj2GeKc/MJODbcYgwE1A2dg6wszVOi+BNmhbhJazw0y0buOkqmuuKMFa/rs+ac3igCdJIbZDaYe6xdtQVTzNcU1WkFaO+m6AMnD8JOBiCEAYl0Wtn1aAMWPwnliycaZgWtguR/uVDTAjWhYFdUgXyPvkC3ibh4DIuV9O6HG2YlgiXAmR+1YA4X+Ny0k2YwCXPsXTxbM3PuvnCbjFmfKlGYqDJcjbzMO2Lp5pWrHGeqZ6C0iWuAPsvN+HG879wr71d40Xnca3HbMB/9N1vIbyRe7bd2O0WPlhxATiz1dgKFmM/xFkGJdGgY7WglK7XRa0H5kwzLtdxzTJMfw3Sa04j8lQFcJAJBxG0Dwu//AUhJtcRpa5v9EYga8Y447zRO7HgqzNQOpks57MF8766gqjh5reh7Xp/r0Rsl30QIhbbGttRVZKLxEglxio10vbgvGlQmnS/hddKHG2/jY9iO8rMBGXIZrPXKCWhCzVd7/1BCGBQEr12VgxK6UYNMCPJ1TDPMfkMlm/fq737LIQ9Qla0Y/GCtE7rmaNteX6sW69jnhAzNN3s/yI1WteNl9jE/YTlu4ox0nS5yBLk/ut7BOi75y+RbuaciMN79p3LhWsufoQaRYkmdY3fiSsmQSkJ2HgFzde3IW7ZCdzTd7u1y2qOb/7Pf6Nm3yTj+hM+06xt7mbOMMzaMB1tRbyZQ2QN1gtKp5V456uHWLByNwL8o+AduRXv7PqvpgUYqQkGKSjDEbcFyJzqZ359ex/DzZeA9zQtz3Xb4KmdHgMHTctSuKsw56sbiDUJneHv1CGvUAVHk7BRaMIzb985RAeGGm7kdJRJhIMPfvx5Bipm2HeeL+JRdOdvVB8rxOTxEYhIXYyd5fW43iUodd3vahw//wyXdsV1qiN4czXu3z+O7HB32LuHY8n3DWg0F5TOPvjhpwycnNl5H4jo9bBeUAbuRfYXRxEZ9zXe3fUMS3fdQEZWFlxsdCEhbLKQtu9PpCg7h0YHx5Sz5h/t+aoO4zVBI8YdwOIvjiNY/5C2EAqMyW1DTvaMTvUIpzQkrVNjqf4xo5fKNa25iAWT0PZTEtYFG1unEtdEFQ5Wq3GrrRW/Xz+OgqyP8EvXoBQBWHMVaIax220oc0mA6swD3IOmvO0O9hcVo7JLUAp7F6zcnoa2r0ORwD9lJLIKqwWlIvFn5Om72ebKBxPpDnVyzgQ8OTENV1b5YEQ/7rP0N+RO3v7wdrWFUG7FeZxDjqeufsfosag6koGWA2GY5sGQJLIWqwXliMx65Knyh8w1N6ll6RHog7VzvPot3KWQdPMLwZgQjbHhSCmqRFPzfiTq63eK8MeGFDd4KhiSRNZktaAM0nSDF78/3WzZ20IITyw7BzyUut5/t6H+5ilsnmb+eU4ish6rBSUR0VDBoCQiksGgJCKSwaAkIpLBoCQiksGgJCKSwaAkIpLBoCQiksGgJCKSwaAkIpLBoCQiksGgJCKSwaAkIpLBoCQiksGgJCKSwaAkIpLBoCQiksGgJCKSwaAkIpLBoCQiksGgJCKSwaAkIpLBoCQiksGgJCKSwaAkIpLBoCQiksGgJCKSwaAkIpLBoCQiksGgJCKSwaAkIpLBoCQiksGgJCKSwaAkIpLx//7xj39gIEhBaW4+EdFQw6AkIpLBoCQiksGgJCKSwaAkIpLBoCQiksGgJCKSwaAkIpLBoCQiksGgJCKSwaAkIpLBoCQiksGgJCKSwaAkIpLBoCQiksGgJCKSwaAkIpLBoCQiksGgJCKSwaAkIpLBoCQiksGgJCKSwaAkIpLBoCQiksGgJCKSwaAkIpLBoCQiksGgJCLq0T/w/wHIMHmfspIp7gAAAABJRU5ErkJggg==;" vertex="1" parent="1">
          <mxGeometry x="170" y="90" width="410.12" height="430" as="geometry" />
        </mxCell>
        <mxCell id="zwBekvU711sfdlBTy3ud-8" value="numbers = [2, 5, 13, 7, 6, 4]&lt;br&gt;size = 6&lt;br&gt;sum = 0&lt;br&gt;avg = 0&lt;br&gt;&lt;div&gt;index = 0&lt;/div&gt;&lt;div&gt;&lt;br&gt;&lt;/div&gt;while (index &amp;lt; size) do&lt;br&gt;&amp;nbsp;&amp;nbsp;&amp;nbsp;&lt;span style=&quot;white-space: pre;&quot;&gt;	&lt;/span&gt;sum += numbers[index]&lt;br&gt;&lt;div&gt;&amp;nbsp;&amp;nbsp; &lt;span style=&quot;white-space: pre;&quot;&gt;	&lt;/span&gt;index += 1&lt;/div&gt;&lt;div&gt;avg = sum / size&lt;/div&gt;&lt;div&gt;print(avg)&lt;/div&gt;" style="text;html=1;strokeColor=none;fillColor=none;align=left;verticalAlign=middle;whiteSpace=wrap;rounded=0;" vertex="1" parent="1">
          <mxGeometry x="80" y="560" width="400" height="190" as="geometry" />
        </mxCell>
        <mxCell id="zwBekvU711sfdlBTy3ud-9" value="&lt;div align=&quot;left&quot;&gt;&lt;b&gt;&lt;font style=&quot;font-size: 20px;&quot;&gt;Exe 1&lt;/font&gt;&lt;/b&gt;&lt;/div&gt;" style="text;html=1;strokeColor=none;fillColor=none;align=left;verticalAlign=middle;whiteSpace=wrap;rounded=0;" vertex="1" parent="1">
          <mxGeometry x="170" y="20" width="220" height="30" as="geometry" />
        </mxCell>
      </root>
    </mxGraphModel>
  </diagram>
  <diagram id="SkFzqLCbND9EJN0ab12u" name="Exe2">
    <mxGraphModel dx="2074" dy="1142" grid="1" gridSize="10" guides="1" tooltips="1" connect="1" arrows="1" fold="1" page="1" pageScale="1" pageWidth="827" pageHeight="1169" math="0" shadow="0">
      <root>
        <mxCell id="0" />
        <mxCell id="1" parent="0" />
        <mxCell id="IaHx1Q_8zekV7M2NkgC5-3" value="" style="edgeStyle=orthogonalEdgeStyle;rounded=0;orthogonalLoop=1;jettySize=auto;html=1;" edge="1" parent="1" source="IaHx1Q_8zekV7M2NkgC5-1" target="IaHx1Q_8zekV7M2NkgC5-2">
          <mxGeometry relative="1" as="geometry" />
        </mxCell>
        <mxCell id="IaHx1Q_8zekV7M2NkgC5-1" value="Start" style="ellipse;whiteSpace=wrap;html=1;" vertex="1" parent="1">
          <mxGeometry x="290" y="70" width="120" height="80" as="geometry" />
        </mxCell>
        <mxCell id="IaHx1Q_8zekV7M2NkgC5-5" value="" style="edgeStyle=orthogonalEdgeStyle;rounded=0;orthogonalLoop=1;jettySize=auto;html=1;" edge="1" parent="1" source="IaHx1Q_8zekV7M2NkgC5-2" target="IaHx1Q_8zekV7M2NkgC5-4">
          <mxGeometry relative="1" as="geometry" />
        </mxCell>
        <mxCell id="IaHx1Q_8zekV7M2NkgC5-2" value="&lt;div&gt;numbers = [1,8,3,8,2,6,8,8]&lt;/div&gt;&lt;div&gt;index = 0&lt;br&gt;&lt;/div&gt;&lt;div&gt;maximum = numbers[index]&lt;/div&gt;&lt;div&gt;count_maximal = 0&lt;/div&gt;&lt;div&gt;size = 8&lt;br&gt;&lt;/div&gt;" style="shape=parallelogram;perimeter=parallelogramPerimeter;whiteSpace=wrap;html=1;fixedSize=1;" vertex="1" parent="1">
          <mxGeometry x="235" y="200" width="230" height="100" as="geometry" />
        </mxCell>
        <mxCell id="IaHx1Q_8zekV7M2NkgC5-7" value="" style="edgeStyle=orthogonalEdgeStyle;rounded=0;orthogonalLoop=1;jettySize=auto;html=1;" edge="1" parent="1" source="IaHx1Q_8zekV7M2NkgC5-4" target="IaHx1Q_8zekV7M2NkgC5-6">
          <mxGeometry relative="1" as="geometry" />
        </mxCell>
        <mxCell id="IaHx1Q_8zekV7M2NkgC5-10" value="" style="edgeStyle=orthogonalEdgeStyle;rounded=0;orthogonalLoop=1;jettySize=auto;html=1;" edge="1" parent="1" source="IaHx1Q_8zekV7M2NkgC5-4" target="IaHx1Q_8zekV7M2NkgC5-9">
          <mxGeometry relative="1" as="geometry" />
        </mxCell>
        <mxCell id="IaHx1Q_8zekV7M2NkgC5-4" value="index &amp;lt; size" style="rhombus;whiteSpace=wrap;html=1;" vertex="1" parent="1">
          <mxGeometry x="295" y="350" width="110" height="90" as="geometry" />
        </mxCell>
        <mxCell id="IaHx1Q_8zekV7M2NkgC5-14" value="" style="edgeStyle=orthogonalEdgeStyle;rounded=0;orthogonalLoop=1;jettySize=auto;html=1;" edge="1" parent="1" source="IaHx1Q_8zekV7M2NkgC5-6" target="IaHx1Q_8zekV7M2NkgC5-13">
          <mxGeometry relative="1" as="geometry" />
        </mxCell>
        <mxCell id="IaHx1Q_8zekV7M2NkgC5-17" value="" style="edgeStyle=orthogonalEdgeStyle;rounded=0;orthogonalLoop=1;jettySize=auto;html=1;" edge="1" parent="1" source="IaHx1Q_8zekV7M2NkgC5-6" target="IaHx1Q_8zekV7M2NkgC5-16">
          <mxGeometry relative="1" as="geometry" />
        </mxCell>
        <mxCell id="IaHx1Q_8zekV7M2NkgC5-6" value="numbers[index]&amp;gt;maximum" style="rhombus;whiteSpace=wrap;html=1;" vertex="1" parent="1">
          <mxGeometry x="255" y="490" width="190" height="95" as="geometry" />
        </mxCell>
        <mxCell id="IaHx1Q_8zekV7M2NkgC5-8" value="Yes" style="text;html=1;strokeColor=none;fillColor=none;align=center;verticalAlign=middle;whiteSpace=wrap;rounded=0;" vertex="1" parent="1">
          <mxGeometry x="295" y="440" width="60" height="30" as="geometry" />
        </mxCell>
        <mxCell id="IaHx1Q_8zekV7M2NkgC5-34" value="" style="edgeStyle=orthogonalEdgeStyle;rounded=0;orthogonalLoop=1;jettySize=auto;html=1;" edge="1" parent="1" source="IaHx1Q_8zekV7M2NkgC5-9" target="IaHx1Q_8zekV7M2NkgC5-33">
          <mxGeometry relative="1" as="geometry" />
        </mxCell>
        <mxCell id="IaHx1Q_8zekV7M2NkgC5-9" value="count_maximal" style="shape=document;whiteSpace=wrap;html=1;boundedLbl=1;" vertex="1" parent="1">
          <mxGeometry x="500" y="355" width="120" height="80" as="geometry" />
        </mxCell>
        <mxCell id="IaHx1Q_8zekV7M2NkgC5-11" value="No" style="text;html=1;strokeColor=none;fillColor=none;align=center;verticalAlign=middle;whiteSpace=wrap;rounded=0;" vertex="1" parent="1">
          <mxGeometry x="414" y="370" width="60" height="30" as="geometry" />
        </mxCell>
        <mxCell id="IaHx1Q_8zekV7M2NkgC5-20" value="" style="edgeStyle=orthogonalEdgeStyle;rounded=0;orthogonalLoop=1;jettySize=auto;html=1;" edge="1" parent="1" source="IaHx1Q_8zekV7M2NkgC5-13" target="IaHx1Q_8zekV7M2NkgC5-19">
          <mxGeometry relative="1" as="geometry" />
        </mxCell>
        <mxCell id="IaHx1Q_8zekV7M2NkgC5-13" value="&lt;div&gt;maximum = numbers[index]&lt;/div&gt;&lt;div&gt;count_maximal = 1&lt;br&gt;&lt;/div&gt;" style="rounded=0;whiteSpace=wrap;html=1;" vertex="1" parent="1">
          <mxGeometry x="255" y="640" width="190" height="70" as="geometry" />
        </mxCell>
        <mxCell id="IaHx1Q_8zekV7M2NkgC5-15" value="Yes" style="text;html=1;strokeColor=none;fillColor=none;align=center;verticalAlign=middle;whiteSpace=wrap;rounded=0;" vertex="1" parent="1">
          <mxGeometry x="290" y="590" width="60" height="30" as="geometry" />
        </mxCell>
        <mxCell id="IaHx1Q_8zekV7M2NkgC5-22" value="" style="edgeStyle=orthogonalEdgeStyle;rounded=0;orthogonalLoop=1;jettySize=auto;html=1;" edge="1" parent="1" source="IaHx1Q_8zekV7M2NkgC5-16">
          <mxGeometry relative="1" as="geometry">
            <mxPoint x="610" y="670" as="targetPoint" />
          </mxGeometry>
        </mxCell>
        <mxCell id="IaHx1Q_8zekV7M2NkgC5-24" value="" style="edgeStyle=orthogonalEdgeStyle;rounded=0;orthogonalLoop=1;jettySize=auto;html=1;entryX=1;entryY=0.5;entryDx=0;entryDy=0;" edge="1" parent="1" source="IaHx1Q_8zekV7M2NkgC5-16" target="IaHx1Q_8zekV7M2NkgC5-19">
          <mxGeometry relative="1" as="geometry">
            <mxPoint x="790" y="537.5" as="targetPoint" />
            <Array as="points">
              <mxPoint x="760" y="538" />
              <mxPoint x="760" y="830" />
            </Array>
          </mxGeometry>
        </mxCell>
        <mxCell id="IaHx1Q_8zekV7M2NkgC5-16" value="numbers[index]==maximum" style="rhombus;whiteSpace=wrap;html=1;" vertex="1" parent="1">
          <mxGeometry x="530" y="496.25" width="160" height="82.5" as="geometry" />
        </mxCell>
        <mxCell id="IaHx1Q_8zekV7M2NkgC5-18" value="No" style="text;html=1;strokeColor=none;fillColor=none;align=center;verticalAlign=middle;whiteSpace=wrap;rounded=0;" vertex="1" parent="1">
          <mxGeometry x="445" y="500" width="60" height="30" as="geometry" />
        </mxCell>
        <mxCell id="IaHx1Q_8zekV7M2NkgC5-32" value="" style="edgeStyle=orthogonalEdgeStyle;rounded=0;orthogonalLoop=1;jettySize=auto;html=1;entryX=0;entryY=0.5;entryDx=0;entryDy=0;" edge="1" parent="1" source="IaHx1Q_8zekV7M2NkgC5-19" target="IaHx1Q_8zekV7M2NkgC5-4">
          <mxGeometry relative="1" as="geometry">
            <mxPoint x="210" y="840" as="targetPoint" />
            <Array as="points">
              <mxPoint x="180" y="840" />
              <mxPoint x="180" y="395" />
            </Array>
          </mxGeometry>
        </mxCell>
        <mxCell id="IaHx1Q_8zekV7M2NkgC5-19" value="index+=1" style="rounded=0;whiteSpace=wrap;html=1;" vertex="1" parent="1">
          <mxGeometry x="290" y="810" width="120" height="60" as="geometry" />
        </mxCell>
        <mxCell id="IaHx1Q_8zekV7M2NkgC5-30" value="" style="edgeStyle=orthogonalEdgeStyle;rounded=0;orthogonalLoop=1;jettySize=auto;html=1;entryX=1;entryY=0;entryDx=0;entryDy=0;" edge="1" parent="1" source="IaHx1Q_8zekV7M2NkgC5-25" target="IaHx1Q_8zekV7M2NkgC5-19">
          <mxGeometry relative="1" as="geometry">
            <mxPoint x="610" y="810" as="targetPoint" />
            <Array as="points">
              <mxPoint x="460" y="700" />
              <mxPoint x="460" y="810" />
            </Array>
          </mxGeometry>
        </mxCell>
        <mxCell id="IaHx1Q_8zekV7M2NkgC5-25" value="count_maximal += 1" style="rounded=0;whiteSpace=wrap;html=1;" vertex="1" parent="1">
          <mxGeometry x="550" y="670" width="120" height="60" as="geometry" />
        </mxCell>
        <mxCell id="IaHx1Q_8zekV7M2NkgC5-27" value="Yes" style="text;html=1;strokeColor=none;fillColor=none;align=center;verticalAlign=middle;whiteSpace=wrap;rounded=0;" vertex="1" parent="1">
          <mxGeometry x="550" y="600" width="60" height="30" as="geometry" />
        </mxCell>
        <mxCell id="IaHx1Q_8zekV7M2NkgC5-28" value="No" style="text;html=1;strokeColor=none;fillColor=none;align=center;verticalAlign=middle;whiteSpace=wrap;rounded=0;" vertex="1" parent="1">
          <mxGeometry x="700" y="510" width="60" height="30" as="geometry" />
        </mxCell>
        <mxCell id="IaHx1Q_8zekV7M2NkgC5-33" value="end" style="ellipse;whiteSpace=wrap;html=1;" vertex="1" parent="1">
          <mxGeometry x="660" y="355" width="120" height="80" as="geometry" />
        </mxCell>
      </root>
    </mxGraphModel>
  </diagram>
</mxfile>
